<?xml version="1.0" encoding="UTF-8"?>
<svg width="101px" height="141px" viewBox="0 0 101 141" version="1.1" xmlns="http://www.w3.org/2000/svg" xmlns:xlink="http://www.w3.org/1999/xlink">
    <!-- Generator: Sketch 64 (93537) - https://sketch.com -->
    <title>to-do-list-2</title>
    <desc>Created with Sketch.</desc>
    <g id="Page-1" stroke="none" stroke-width="1" fill="none" fill-rule="evenodd">
        <g id="to-do-list-2" transform="translate(0.173038, 0.000000)" fill-rule="nonzero">
            <path d="M99.904924,13.5848055 L99.904924,137.829173 C99.904924,139.391425 98.6370089,140.659341 97.0747562,140.659341 L2.83016782,140.659341 C1.26791518,140.659341 0,139.391425 0,137.829173 L0,13.5848055 C0,12.0225529 1.26791518,10.7546377 2.83016782,10.7546377 L97.0747562,10.7546377 C98.6370089,10.7546377 99.904924,12.0225529 99.904924,13.5848055 Z" id="Path" fill="#FAD207"></path>
            <path d="M4.52826851,24.7212329 L4.52826851,134.12703 C4.52826851,135.233909 5.42543171,136.131072 6.53231035,136.131072 L63.6385876,136.131072 C64.3891481,136.131072 65.1091428,135.832772 65.6397992,135.302116 L87.4521856,113.48973 L87.4521856,23.2073761 L10.1676609,23.2073761 L9.69049462,19.7627789 L5.78769319,22.3670993 C5.00062352,22.8920954 4.52826851,23.7753908 4.52826851,24.7212329 Z" id="Path" fill="#FAA515"></path>
            <path d="M91.4144206,22.075309 L91.4144206,109.527495 L74.4334137,115.753864 L68.773078,132.168837 L11.3206713,132.168837 C9.75756959,132.168837 8.49050346,130.901771 8.49050346,129.338669 L8.49050346,22.075309 C8.49050346,20.5122073 9.75756959,19.2451412 11.3206713,19.2451412 L88.5842528,19.2451412 C90.1473545,19.2451412 91.4144206,20.5122073 91.4144206,22.075309 Z" id="Path" fill="#F5F5F5"></path>
            <path d="M91.4144206,109.527495 L68.773078,132.168837 L68.773078,112.357662 C68.773078,110.794561 70.0401442,109.527495 71.6032458,109.527495 L91.4144206,109.527495 Z" id="Path" fill="#E6E6E6"></path>
            <path d="M78.435271,19.2451412 L78.435271,24.7441573 C78.435271,28.6441285 75.2598227,31.8195768 71.3598514,31.8195768 L28.5450726,31.8195768 C24.6451014,31.8195768 21.4696531,28.6441285 21.4696531,24.7441573 L21.4696531,19.2451412 L78.435271,19.2451412 Z" id="Path" fill="#E6E6E6"></path>
            <polygon id="Path" fill="#FAA515" points="21.4696531 10.7546377 78.435271 10.7546377 78.435271 19.2451412 21.4696531 19.2451412"></polygon>
            <path d="M74.1894532,10.7486944 L74.1894532,24.7430252 C74.1894532,26.3061269 72.9223871,27.573193 71.3592854,27.573193 L28.5456387,27.573193 C26.982537,27.573193 25.7154708,26.3061269 25.7154708,24.7430252 L25.7154708,10.7486944 L41.4248834,10.7489774 C41.216017,9.85153117 41.1449798,8.90116081 41.2355451,7.92135671 C41.6266743,3.6916709 45.0936299,0.313865611 49.3312402,0.0215092754 C54.4476176,-0.331412652 58.7075862,3.71459526 58.7075862,8.75540717 C58.7075862,9.44115683 58.6286245,10.1087934 58.4794747,10.7489774 L74.1894532,10.7486944 Z" id="Path" fill="#50758D"></path>
            <path d="M28.2708294,56.0644924 C27.7231919,56.0644924 27.1956486,55.8527959 26.7997081,55.4718553 L19.6289119,48.5770005 C18.7838238,47.7644593 18.7575033,46.4206956 19.5700444,45.5758905 C20.3825856,44.7310854 21.7266323,44.7047649 22.5711544,45.517023 L28.1434718,50.8753798 L36.882181,40.9553585 C37.6567979,40.0760254 38.9982975,39.9905543 39.8781967,40.7657373 C40.7575298,41.5406372 40.8427178,42.8821368 40.0678179,43.7617529 L29.8633648,55.3453468 C29.4804431,55.7797776 28.9370509,56.0390209 28.3585646,56.0627943 C28.3294138,56.0639264 28.2999801,56.0644924 28.2708294,56.0644924 L28.2708294,56.0644924 Z" id="Path" fill="#5ED297"></path>
            <path d="M76.9805647,50.272554 L46.9807858,50.272554 C45.8082473,50.272554 44.8581599,49.3224667 44.8581599,48.1499281 C44.8581599,46.9773896 45.8082473,46.0273023 46.9807858,46.0273023 L76.9805647,46.0273023 C78.1531032,46.0273023 79.1031906,46.9773896 79.1031906,48.1499281 C79.1031906,49.3224667 78.1531032,50.272554 76.9805647,50.272554 Z" id="Path" fill="#50758D"></path>
            <path d="M28.2708294,81.0353461 C27.7231919,81.0353461 27.1956486,80.8236496 26.7997081,80.442709 L19.6289119,73.5478542 C18.7838238,72.735313 18.7575033,71.3915493 19.5700444,70.5467442 C20.3825856,69.7016561 21.7266323,69.6753355 22.5711544,70.4878767 L28.146868,75.8490636 L36.9002941,65.9516837 C37.6766091,65.0734827 39.0181087,64.9911248 39.8965927,65.7680058 C40.7747938,66.5446039 40.8571517,67.8861034 40.0802706,68.7643045 L29.8608177,80.3190307 C29.4776129,80.7520463 28.9345037,81.0101576 28.3565835,81.033648 C28.3279988,81.0347801 28.2991311,81.0353461 28.2708294,81.0353461 L28.2708294,81.0353461 Z" id="Path" fill="#5ED297"></path>
            <g id="Group" transform="translate(44.716652, 70.754196)" fill="#50758D">
                <path d="M32.2639131,4.38676012 L2.26413426,4.38676012 C1.09159573,4.38676012 0.141508391,3.43667278 0.141508391,2.26413426 C0.141508391,1.09159573 1.09159573,0.141508391 2.26413426,0.141508391 L32.2639131,0.141508391 C33.4364517,0.141508391 34.386539,1.09159573 34.386539,2.26413426 C34.386539,3.43667278 33.4364517,4.38676012 32.2639131,4.38676012 Z" id="Path"></path>
                <path d="M32.2639131,30.1783625 L27.3111195,30.1783625 C26.1385809,30.1783625 25.1884936,29.2282751 25.1884936,28.0557366 C25.1884936,26.8831981 26.1385809,25.9331108 27.3111195,25.9331108 L32.2639131,25.9331108 C33.4364517,25.9331108 34.386539,26.8831981 34.386539,28.0557366 C34.386539,29.2282751 33.4364517,30.1783625 32.2639131,30.1783625 Z" id="Path"></path>
                <path d="M17.4055321,30.1783625 L2.26413426,30.1783625 C1.09159573,30.1783625 0.141508391,29.2282751 0.141508391,28.0557366 C0.141508391,26.8831981 1.09159573,25.9331108 2.26413426,25.9331108 L17.4055321,25.9331108 C18.5780706,25.9331108 19.528158,26.8831981 19.528158,28.0557366 C19.528158,29.2282751 18.5780706,30.1783625 17.4055321,30.1783625 Z" id="Path"></path>
            </g>
            <path d="M35.9431313,107.441944 L22.9243593,107.441944 C21.7518208,107.441944 20.8017335,106.491857 20.8017335,105.319318 L20.8017335,92.3005461 C20.8017335,91.1280076 21.7518208,90.1779203 22.9243593,90.1779203 L35.9431313,90.1779203 C37.1156698,90.1779203 38.0657572,91.1280076 38.0657572,92.3005461 L38.0657572,105.319318 C38.0657572,106.491574 37.1156698,107.441944 35.9431313,107.441944 Z M25.0469852,103.196692 L33.8205055,103.196692 L33.8205055,94.423172 L25.0469852,94.423172 L25.0469852,103.196692 Z" id="Shape" fill="#FD646F"></path>
        </g>
    </g>
</svg>